<?xml version="1.0" encoding="UTF-8" standalone="no"?>
<svg width="800" height="500" xmlns="http://www.w3.org/2000/svg">
  <style>
    .title { font: bold 20px sans-serif; }
    .subtitle { font: bold 16px sans-serif; }
    .label { font: 14px sans-serif; }
    .code { font: 12px monospace; fill: #333; }
    .box { stroke-width: 2px; }
    .arrow { stroke: #333; stroke-width: 2px; fill: none; marker-end: url(#arrowhead); }
    .description { font: italic 12px sans-serif; fill: #555; }
  </style>
  
  <defs>
    <marker id="arrowhead" markerWidth="10" markerHeight="7" refX="9" refY="3.5" orient="auto">
      <polygon points="0 0, 10 3.5, 0 7" fill="#333" />
    </marker>
  </defs>
  
  <rect x="10" y="10" width="780" height="480" fill="#f8f9fa" stroke="#ddd" rx="5" ry="5" />
  
  <text x="400" y="40" text-anchor="middle" class="title">Dark Mode Implementierung</text>
  
  <!-- Light Mode Box -->
  <rect x="50" y="80" width="300" height="180" fill="#ffffff" stroke="#cccccc" class="box" rx="5" ry="5" />
  <text x="200" y="105" text-anchor="middle" class="subtitle" fill="#333333">Light Mode</text>
  <rect x="70" y="120" width="260" height="40" fill="#f0f0f0" stroke="#dddddd" rx="3" ry="3" />
  <text x="200" y="145" text-anchor="middle" class="label" fill="#333333">Überschrift</text>
  <rect x="70" y="170" width="260" height="70" fill="#ffffff" stroke="#dddddd" rx="3" ry="3" />
  <text x="80" y="190" class="label" fill="#333333">Beschreibungstext</text>
  <text x="80" y="210" class="label" fill="#333333">Weitere Informationen</text>
  <rect x="150" y="225" width="100" height="30" fill="#4285f4" stroke="none" rx="3" ry="3" />
  <text x="200" y="245" text-anchor="middle" class="label" fill="#ffffff">Button</text>
  
  <!-- Dark Mode Box -->
  <rect x="450" y="80" width="300" height="180" fill="#1f1f1f" stroke="#444444" class="box" rx="5" ry="5" />
  <text x="600" y="105" text-anchor="middle" class="subtitle" fill="#ffffff">Dark Mode</text>
  <rect x="470" y="120" width="260" height="40" fill="#2d2d2d" stroke="#555555" rx="3" ry="3" />
  <text x="600" y="145" text-anchor="middle" class="label" fill="#ffffff">Überschrift</text>
  <rect x="470" y="170" width="260" height="70" fill="#1f1f1f" stroke="#555555" rx="3" ry="3" />
  <text x="480" y="190" class="label" fill="#dddddd">Beschreibungstext</text>
  <text x="480" y="210" class="label" fill="#dddddd">Weitere Informationen</text>
  <rect x="550" y="225" width="100" height="30" fill="#4285f4" stroke="none" rx="3" ry="3" />
  <text x="600" y="245" text-anchor="middle" class="label" fill="#ffffff">Button</text>
  
  <!-- Theme Selection Box -->
  <rect x="50" y="300" width="300" height="120" fill="#e3f2fd" stroke="#2196f3" class="box" rx="5" ry="5" />
  <text x="200" y="325" text-anchor="middle" class="subtitle">Theme-Auswahl</text>
  <text x="60" y="350" class="label">• theme-Prop (light/dark)</text>
  <text x="60" y="370" class="label">• Dynamische Änderung</text>
  <text x="60" y="390" class="label">• Konsistente Farbpalette</text>
  <text x="60" y="410" class="description">Steuert das aktive Farbschema</text>
  
  <!-- Theme Classes Box -->
  <rect x="450" y="300" width="300" height="160" fill="#fff3e0" stroke="#ff9800" class="box" rx="5" ry="5" />
  <text x="600" y="325" text-anchor="middle" class="subtitle">Theme-Klassen</text>
  <text x="460" y="350" class="code">const themeClasses = computed(() => {</text>
  <text x="470" y="370" class="code">return {</text>
  <text x="480" y="390" class="code">container: props.theme === 'dark'</text>
  <text x="490" y="410" class="code">? 'bg-gray-800 text-white'</text>
  <text x="490" y="430" class="code">: 'bg-white text-gray-800'</text>
  <text x="470" y="450" class="code">};</text>
  <text x="460" y="470" class="code">});</text>
  
  <!-- Arrows -->
  <path d="M200 260 L200 300" class="arrow" />
  <path d="M600 260 L600 300" class="arrow" />
  <path d="M350 360 L450 360" class="arrow" />
  
  <!-- Toggle Switch -->
  <rect x="350" y="180" width="50" height="24" fill="#dddddd" stroke="#aaaaaa" rx="12" ry="12" />
  <circle cx="362" cy="192" r="10" fill="#ffffff" stroke="#aaaaaa" />
  <text x="375" y="160" text-anchor="middle" class="label">Toggle</text>
</svg>
